/* XPM */
static char *demon1748511816[] = {
/* columns rows colors chars-per-pixel */
"64 64 248 2 ",
"   c #010102",
".  c #02010C",
"X  c #0B0808",
"o  c #190606",
"O  c #1B140C",
"+  c #020214",
"@  c #02021B",
"#  c #0B0918",
"$  c #121213",
"%  c #19181A",
"&  c #260406",
"*  c #380408",
"=  c #2D0213",
"-  c #1C2D0F",
";  c #020224",
":  c #02022B",
">  c #090725",
",  c #020234",
"<  c #02023C",
"1  c #0C0833",
"2  c #1B1B31",
"3  c #232324",
"4  c #393838",
"5  c #353032",
"6  c #321721",
"7  c #490505",
"8  c #5D0204",
"9  c #570605",
"0  c #521714",
"q  c #630203",
"w  c #6C0203",
"e  c #680A09",
"r  c #730203",
"t  c #7B0204",
"y  c #730C0D",
"u  c #7B0C0C",
"i  c #750C04",
"p  c #6B1309",
"a  c #6B1616",
"s  c #731313",
"d  c #7A1818",
"f  c #73100B",
"g  c #4F3315",
"h  c #672308",
"j  c #6F3219",
"k  c #51182F",
"l  c #572927",
"z  c #4A3131",
"x  c #692927",
"c  c #772929",
"v  c #663939",
"b  c #7C3738",
"n  c #76302F",
"m  c #244415",
"M  c #324B19",
"N  c #387328",
"B  c #2E5F22",
"V  c #4E561B",
"C  c #675A18",
"Z  c #6A443E",
"A  c #454039",
"S  c #020244",
"D  c #02024C",
"F  c #0E0A41",
"G  c #020254",
"H  c #04035C",
"J  c #151140",
"K  c #362945",
"L  c #323241",
"P  c #020264",
"I  c #020168",
"U  c #02027A",
"Y  c #4C4C4C",
"T  c #464646",
"R  c #54494A",
"E  c #535354",
"W  c #5C5C5C",
"Q  c #5B5556",
"!  c #4B4D51",
"~  c #684949",
"^  c #754345",
"/  c #675959",
"(  c #775654",
")  c #6A504F",
"_  c #785F61",
"`  c #646364",
"'  c #6C6C6C",
"]  c #6A6666",
"[  c #776A69",
"{  c #737373",
"}  c #7B7B7B",
"|  c #797576",
" . c #62627C",
".. c #830203",
"X. c #8C0304",
"o. c #880B0A",
"O. c #940203",
"+. c #9C0203",
"@. c #930A0B",
"#. c #990909",
"$. c #841C1C",
"%. c #8A1816",
"&. c #931313",
"*. c #9D1415",
"=. c #931A1A",
"-. c #97191B",
";. c #900F10",
":. c #A40203",
">. c #AC0203",
",. c #A40B0D",
"<. c #AD0C0E",
"1. c #A60808",
"2. c #B40203",
"3. c #BB0203",
"4. c #B50A0B",
"5. c #A50D10",
"6. c #A81618",
"7. c #B81617",
"8. c #85281B",
"9. c #8E3510",
"0. c #831E20",
"q. c #852222",
"w. c #8A2424",
"e. c #8D2B2B",
"r. c #872829",
"t. c #922B2C",
"y. c #982424",
"u. c #883537",
"i. c #9A3334",
"p. c #9F3939",
"a. c #983736",
"s. c #923327",
"d. c #A52929",
"f. c #A23B3B",
"g. c #A53939",
"h. c #BA2A2B",
"j. c #C30203",
"k. c #CB0203",
"l. c #C8080A",
"z. c #D30203",
"x. c #DC0204",
"c. c #D40A0C",
"v. c #DB090B",
"b. c #C41516",
"n. c #D61617",
"m. c #E40303",
"M. c #EB0103",
"N. c #E70B0C",
"B. c #F20708",
"V. c #E71314",
"C. c #EA0E11",
"Z. c #C92626",
"A. c #C73536",
"S. c #D22426",
"D. c #E12526",
"F. c #905517",
"G. c #9C6718",
"H. c #964F2E",
"J. c #A84F33",
"K. c #A97125",
"L. c #9D3E40",
"P. c #844949",
"I. c #984A4A",
"U. c #875959",
"Y. c #995052",
"T. c #AA4343",
"R. c #AD4A4B",
"E. c #AA4646",
"W. c #B24D4D",
"Q. c #BA4748",
"!. c #B54F50",
"~. c #B65152",
"^. c #B95455",
"/. c #BD5A5A",
"(. c #A35150",
"). c #BC5F60",
"_. c #886566",
"`. c #936263",
"'. c #867877",
"]. c #906F71",
"[. c #B07272",
"{. c #A16450",
"}. c #C15D5E",
"|. c #CE4B4C",
" X c #EE4B4C",
".X c #C4615F",
"XX c #C46263",
"oX c #CB6B6A",
"OX c #D47676",
"+X c #CD6F6F",
"@X c #EA6E6E",
"#X c #698D32",
"$X c #7E807F",
"%X c #A89C35",
"&X c #C69E35",
"*X c #82807C",
"=X c #97AC41",
"-X c #E4D153",
";X c #010187",
":X c #020195",
">X c #0101AA",
",X c #0201B8",
"<X c #0202C9",
"1X c #0302D7",
"2X c #0505E6",
"3X c #0B0CF7",
"4X c #DD7D80",
"5X c #838383",
"6X c #8B8B8B",
"7X c #888787",
"8X c #939393",
"9X c #9A9A9A",
"0X c #989798",
"qX c #B28C8C",
"wX c #A1A1A1",
"eX c #ABABAB",
"rX c #A9A6A5",
"tX c #BDBDBC",
"yX c #B3B3B3",
"uX c #BFA6A7",
"iX c #C78A89",
"pX c #D98786",
"aX c #D6908F",
"sX c #C99491",
"dX c #E59192",
"fX c #CEAAA8",
"gX c #E5A6A5",
"hX c #E8BCBC",
"jX c #F3A0A0",
"kX c #E9C5BA",
"lX c gray77",
"zX c #CCCCCC",
"xX c #C6C9CB",
"cX c #D5D5D5",
"vX c #DBDBDB",
"bX c #D4CACA",
"nX c #EAC6C6",
"mX c #F4DAD9",
"MX c #ECD7D5",
"NX c #F0E1DD",
"BX c #EEE3E2",
"VX c #ECECEC",
"CX c gray89",
"ZX c #F6E5E5",
"AX c #F4F4F3",
"SX c #FFFFFF",
"DX c #F9F4F3",
"FX c #F8F0EF",
/* pixels */
"SXSXSXSXSXSXSXSXSXSXSXSXSXSXSXSXSXSXSXSXSXSXSXSXSXSXSXSXSXSXSXSXSXSXSXSXSXSXSXSXSXSXSXSXSXSXSXSXSXSXSXSXSXSXSXSXSXSXSXSXSXSXSXSX",
"SXSXSXSXSXSXSXSXSXSXSXSXSXSXSXSXSXSXSXSXSXSXSXSXSXSXSXSXSXSXSXSXSXSXSXSXSXSXSXSXSXSXSXSXSXSXSXSXSXSXSXSXSXSXSXSXSXSXSXSXSXSXSXSX",
"SXSXSXSXSXSXSXSXSXSXSXSXSXSXSXSXSXSXSXSXSXSXSXSXSXSXSXSXSXSXSXSXSXSXSXSXSXSXSXSXSXSXSXSXSXSXSXSXSXSXSXSXSXSXSXSXSXSXSXSXSXSXSXSX",
"SXSXSXSXSXSXSXSXSXSXSXSXSXSXSXSXSXSXSXSXSXSXSXSXSXSXSXSXSXSXSXSXSXSXSXSXSXSXSXSXSXSXSXSXSXSXSXSXSXSXSXSXSXSXSXSXSXSXSXSXSXSXSXSX",
"SXSXSXSXSXSXSXSXSXSXSXSXSXSXvXxXSXSXSXSXSXSXSXSXSXSXSXSXSXSXSXSXSXSXSXSXSXSXSXSXSXSXSXSXSXSXSXSXSXAXlXCXSXSXSXSXSXSXSXSXSXSXSXSX",
"SXSXSXSXSXSXSXSXSXSXSXSXSXSXwX5XSXSXSXSXSXSXSXSXSXSXSXSXSXSXSXSXSXSXSXSXSXSXSXSXSXSXSXSXSXSXSXSXSXAX{ lXSXSXSXSXSXSXSXSXSXSXSXSX",
"SXSXSXSXSXSXSXSXSXSXSXSXSXSXwX7XSXSXSXSXSXSXSXSXSXSXSXSXSXSXSXSXSXSXSXSXSXSXSXSXSXSXSXSXSXSXSXSXSXVX{ lXSXSXSXSXSXSXSXSXSXSXSXSX",
"SXSXSXSXSXSXSXSXSXSXSXSXSXSXwX5XAXSXSXSXSXSXSXSXSXSXSXSXSXSXSXSXSXSXSXSXSXSXSXSXSXSXSXSXSXSXSXSXSXVX{ lXSXSXSXSXSXSXSXSXSXSXSXSX",
"SXSXSXSXSXSXSXSXSXSXSXSXSXSX9X' eXVXSXSXSXSXCXSXSXSXSXSXSXSXSXSXSXSXSXSXSXSXSXSXSXSXDXVXSXSXSXSXVX8X' lXSXSXSXSXSXSXSXSXSXSXSXSX",
"SXSXSXSXSXSXSXSXSXSXSXSXSXSX9X] 6XtXSXSXSXzX9XSXSXSXSXSXSXSXSXSXSXSXSXSXSXSXSXSXSXSXVXeXvXSXSXDXeX$X` tXSXSXSXSXSXSXSXSXSXSXSXSX",
"SXSXSXSXSXSXSXSXSXSXSXSXSXSX9X` $XeXVXSXSXwX6XSXSXSXSXSXSXSXSXSXSXSXSXSXSXSXSXSXSXSXVX7XtXSXSXCX9X| ` tXSXSXSXSXSXSXSXSXSXSXSXSX",
"SXSXSXSXSXSXSXSXSXSXSXSXSXSX8XW { 5XeXtXeX6XwXSXSXSXSXSXSXSXSXSXSXSXSXSXSXSXSXSXSXSXAX9X0XeXtXwX5X] W tXSXSXSXSXSXSXSXSXSXSXSXSX",
"SXSXSXSXSXSXSXSXSXSXSXSXSXSXvX} ` { 5X6X6X{ } fXNXmXZXZX@X X X X X X XT.|.+XMXBXZXZX9X| | 6X6X$X{ E 7XVXSXSXSXSXSXSXSXSXSXSXSXSX",
"SXSXSXSXSXSXSXSXSXSXSXSXSXSXAX7XE W { 6X9X8X} 6.h.S.D.S.l.M.M.x.B.V.2.:.+.,.d.d.7.h.d.'.0X9X7X{ W Y 8XSXSXSXSXSXSXSXSXSXSXSXSXSX",
"SXSXSXSXSXSXSXSXSXSXAXAXSXSXAXeXE ! W { 6XeXbXuXd.3.z.k.j.:.2.j.3.2.j.>.+.O.O.k.4.d.zXxXwX6X{ W ! W yXSXSXSXSXAXSXSXSXSXSXSXSXSX",
"SXSXSXSXSXSXSXSXSXAX8XtXAXSXSXSX~ Y W ' | 9XyXzXqXz.x.>.2.O.>.z.l.k.k.:.O.+.2.x.b.qXzXyX8X{ ] Q W yXSXSXSXAXyXeXSXSXSXSXSXSXSXSX",
"SXSXSXSXSXSXSXSXSXDXtX5XlXvXVXgX*.n W ] ' { $X0X[.k.z.2.>.:.2.j.z.x.3.>.>.2.3.x.7.[.8X$X{ ' ] E b gXSXVXcXyX7XcXSXSXSXSXSXSXSXSX",
"SXSXSXSXSXSXSXSXSXSXCX} } 8XfX`.3.#.v W ] ' ' } `.k.j.3.k.k.3.>.3.2.>.3.k.k.>.j.b.`.{ ' ' ` W n ,.A.lXtX6X{ 5XAXSXSXSXSXSXSXSXSX",
"SXSXSXSXSXSXSXSXSXSXSXvX` | 7X$Xa.<.,.6.b E W ) 7.2.:.2.k.z.3.O.....+.k.k.2.3.2.4.6.W W E b *.1.2.U.$X7X| | cXSXSXSXSXSXSXSXSXSX",
"SXSXSXSXSXSXSXSXSXSXSXCX' ` } } P.l.O.:.5.6.6.6.3.2.2.j.k.j.>...r t X.2.3.z.m.k.2.j.6.6.6.1.:.+.z.] } { ` } CXSXSXSXSXSXSXSXSXSX",
"SXSXSXSXSXSXSXSXSXSXSXDXeXE W ` v.j.X.O.+.O.O.+.:.3.z.m.M.z.2.O.t ..:.2.z.M.M.z.3.>.O.O.+.+.X.+.z.h.` E Y cXAXSXSXSXSXSXSXSXSXSX",
"SXSXSXSXSXSXSXSXSXSXFXjXv.2.:.3.k.j.j.@.o.O.:.>.:.>.k.x.m.x.k.:.X.+.3.x.M.B.B.x.3.2...r u ..#.j.3.z.3.:.>.C.jXDXSXSXSXSXSXSXSXSX",
"SXSXSXSXSXSXSXSXSXFXOXl.3.2.:.+.>.>.,.%.u u o.O.+.:.>.3.k.z.x.k.>.3.z.M.m.x.z.3.:.@.a s y $.=.:.>.>.+.>.2.k.b.gXSXSXSXSXSXSXSXSX",
"SXSXSXSXSXSXSXSXSXZXZ.:.O.+.3.3.k.2.;.0.s s d %.o.O.2.3.j.j.k.k.:.>.j.k.j.j.3.>.o.d d d y s 0.@.2.k.3.2.+.+.:.S.gXSXSXSXSXSXSXSX",
"SXSXSXSXSXSXSXSXAXW.<.:.k.3.2.k.m.2.=.r.w.w.r.T.a.$.#.j.V.V.k.1.8 i :.V.V.k.2.@.0.i.f.t.w.w.w.=.2.M.z.>.2.j.>.2.Q.SXSXSXSXSXSXSX",
"SXSXSXSXSXSXSXSXSXo.X.+.k.2.>.3.4.=.i.p.8.8.w.g.t.w.u -.9.0 7 p h h p 0 h 9.&.u e.i.i.w.8.e.g.t.=.3.3.:.2.j.O.X.I.DXSXSXSXSXSXSX",
"SXSXSXSXSXSXSXSXVXe w t +.X...X.w.g.T.E.a.8.q.W.^.s.d q.9.- M G.&X&XF.m - 9.d d p.~.L.q.8.g.R.J.f.$.O.t X.O.r w i iXSXSXSXSXSXSX",
"SXSXSXSXSXSXSXSXXXr q w ..t d w.f.f.W.^.!.i.q.0.w.a.e.9.F.M N =X-X-X#XN V G.9.s.i.t.8.0.a.W.^.R.g.g.w.s t ..w q t pXSXSXSXSXSXSX",
"SXSXSXSXSXSXSXSX|.:.t q q y t.T.f.^.XXXX!.T.i.0.t.J.i.s.K.V B #X%X%XN B V K.s.J.L.t.w.i.T.!.XX}.^.g.J.w.y q q ..>.pXSXSXSXSXSXSX",
"SXSXSXSXSXSXSXSX|.3.>.t r o.*.w.g.R.!.}.XX^.W./.).W.T.g.H.K.C M m m C C J.H.g.J.^.XX!.!./.XX^.!.R.i.d.*.o.w ..2.3.pXSXSXSXSXSXSX",
"SXSXSXSXSXSXSXgXd.2.3.:.>.>.1.a d d p.!.^.W.XX4XdX}.^.!.W.g.J.F.g V H.J.f.Q.~.^.oXpXOX}.R.!.E.t.0.x c >.>.:.:.j.:.Q.nXAXSXSXSXSX",
"SXSXSXSXSXSXSX{.i ..X.+.k.3.#.^ l a d r.f.!.+XoXE.f.R.!.}.~.}.oXi.J.OXE.!.}.~.T.f.R.OXXXt.w.d d y z ^ +.3.j.+.X.t f iXSXSXSXSXSX",
"SXSXSXSXSXSXSX(.q 8 r ..:.O.o.=./ / v P._.c r.i.g.E./.}.+XXXpXXX).R.OXOX+XOX}./.T.g.i.c x _.b z ( ) &...O.+...w q w qXSXSXSXSXSX",
"SXSXSXSXSXSXFXQ.X.q q w ..t s 9 T R z ) 5XZ / a e $.t.^.XX!.}.^.R.p.+X^.^.oXR.e.d e x ~ ^ 5X! T Q z y s t t w q w X.OXSXSXSXSXSX",
"SXSXSXSXSXAXdXv.j.O.t q w y q.o.z 5 F L ] / 6X~ p s $.t.g.g.W.T.p.i.!.T.g.g.w.0.f s ] $X/ ` L 1 z l o.w.y w q ..+.k.n.nXSXSXSXSX",
"SXSXSXSXSXZX@XM.z.>.t 8 8 y w.o.9 = ; % T E } / a a c n r.q.t.a.i.g.t.w.q.r.n c 0 a ' ' ! A # 1 7 t ;.0.y 8 q X.3.x.B.dXFXSXSXSX",
"SXSXSXSXSXpXl.k.3.O.w 8 9 8 p 9 o     # J 5 ! 4 O $ A } ( w.q.a.E.T.e.$.e.( { 4 X O Y T 2 2 X < + 7 e p 8 q 8 r :.3.k.j.nXSXSXSX",
"SXSXSXSXSXpX2.2.:...t r p l p 7       @ , % 3 %     5 $XQ l P.U.`.U.`.^ z / | 3     3 3 1 < @ > . o e x l e r t X.:.3.2.nXSXSXSX",
"SXSXSXSXSXpX+.+.:...+.O.c *Xn 7       . , .         3 Y 4 X Y Q { ` W T % 4 Y 2 , #   @ G 1 . .   o 9 U.$X%.+.+.X.+.+.+.nXSXSXSX",
"SXSXSXSXSXiX,.2.k.O.:.+.u.7Xc 7         , @       ; > % $   $ 5 ] W T $ X $ $ + @ <   @ D .       * 9 P.*X=.+.:.:.j.>.#.nXSXSXSX",
"SXSXSXSXSXSXpX>.3.2.j.>.d.( s 9     . : @       + :                   D .       . : < , S         7 w c ( 7.2.j.2.3.>.kXSXSXSXSX",
"SXSXSXSXSXSXpX:.>.z.x.l.c.6.X.q X   ; : .       @ :             .     < ; +       . ; D ,         9 t +.<.v.l.x.k.:.4.nXSXSXSXSX",
"SXSXSXSXSXSXkXd.+.x.m.C.N.N.:...* > 1 :       . : ,   + + + + @ , ; @ @ S <         @ S       . & 8 X.j.N.N.N.m.k.+.J.mXSXSXSXSX",
"SXSXSXSXSXDXSX|.:.2.2.k.z.x.w.$.K H S @   . ; : : @ . , , , < H U U G , < < .       S S       & v x 8.6.z.z.j.2.>.>.pXSXSXSXSXSX",
"SXSXSXSXSXSXSX|.4.:.+.2.x.h.'.( }  .@     ; ; @     ; < S S H :X,X,X:XG S < @       P S     & j wX[ ( ].h.z.>.+.>.j.pXSXSXSXSXSX",
"SXSXSXSXSXSXSXmXA.3.2.+.k.7.`./ $X7XK H D S .       @ D G I :X<X3X1X,X:XI G < +     , G : X * ^ 9X] / Y.b.3.:.2.2.oXmXSXSXSXSXSX",
"SXSXSXSXSXSXSXSX|.2.3.2.2.k.-.$.] _ k U P ;         : H I U <X2X3X3X1X,X;XP G @     @ H S & q d | ) d 7.k.2.2.3.2.pXSXSXSXSXSXSX",
"SXSXSXSXSXSXSXSXOX2.O.t @.4.l.V.:.+.:.t *           : D P ;X,X<X2X2X<X>XU P D @       @ 6 t O.4.>.4.n.3.<.X...#.b.gXSXSXSXSXSXSX",
"SXSXSXSXSXSXSXSXBX,.X...*.y.1.3.j.3.j.O.q o       + : S G I ;X,X1X<X,XU I D < +     X & e ..+.z.V.3.>.*.y.@...O.Q.FXSXSXSXSXSXSX",
"SXSXSXSXSXSXSXSXSX<.>.2.3.>.>.2.3.>.2.X.t 9 o .   X + : < S I U :X;XU P D S @       * 8 r t O.3.3.+.+.:.>.3.3.>.|.SXSXSXSXSXSXSX",
"SXSXSXSXSXSXSXSXSX,.O.:.>.j.3.2.,.w.+...o.f p & X T T % @ , S D D S D S , > 3 Y 5 * e y y i @.#.u.%.%.2.j.>.:.O.Q.SXSXSXSXSXSXSX",
"SXSXSXSXSXSXSXSXaXo.r ..+.3.2.3.4.y.+.@...u 8.e 0 8X8XY $ + , < , , , + + $ E wX'.x s d o.o.X.@.w.t.u :.3.O...t -.hXSXSXSXSXSXSX",
"SXSXSXSXSXSXSXSXE.%.sXsX;.+.O.+.c.v.j.y.w.&.o.%.n 6X0X` 5 X ! L # # ! 4 O z { 9X'.n %.;.&.r.-.l.n.4.+.O.+.=.sXqXt iXSXSXSXSXSXSX",
"SXSXSXSXSXSXSXSX(.5..XAX[.X.....>.z.C.b.u._.5.+.c 5X0X$XY g ' { T E $XW z R 7X8X[ d +.y._.u.n.N.z.:.......fXmXA.X.iXSXSXSXSXSXSX",
"SXSXSXSXSXSXSXSXSXE.,.>.X...6.7.z.j.v.C.v.4.P.Y.*./ 5X'.Z @.} 0XI.`.wX] 0.R 5X$X^ &.`.a.l.x.N.c.3.c.7.*...O.2.7.[.SXSXSXSXSXSXSX",
"SXSXSXSXSXSXSXSXSXBX).I.Y.J.U.| 6.c.k.c.N.N.v.3.:.x ~ ) &.>.( `.d.H.`.Z ,.&.( ~ d +.l.c.m.C.c.k.m.t.} I.g.(.Y.[.SXSXSXSXSXSXSXSX",
"SXSXSXSXSXSXSXSXSXSXSXDXSXzX8XrX~ 5.x.2.x.C.C.v.3...w X.2.z.k.k.v.z.j.k.k.>...w O.3.N.C.N.x.2.z.1.' rX8XzXDXSXSXSXSXSXSXSXSXSXSX",
"SXSXSXSXSXSXSXSXSXSXSXSXSXzX$X} v #.x.k.x.j.j.z.x.2.X.>.z.m.m.z.k.z.z.M.m.z.:.X.3.x.j.j.j.x.j.z.O.W } 7XzXSXSXSXSXSXSXSXSXSXSXSX",
"SXSXSXSXSXSXSXSXSXSXSXSXSXtXW W ~ ,.2.2.3.-.fX+.+.2.m.x.k.j.>.+.+.O.:.3.j.k.x.x.:.+.g.+XX.j.2.2.4.E W ' tXSXSXSXSXSXSXSXSXSXSXSX",
"SXSXSXSXSXSXSXSXSXSXSXSXSXlX6XzXfXL.w.d.7.o.a...w.&.2.n.A.aXX.t ....t -.+XS.n.>.%.q.%.e.X.7.d.w.e.cXlX5XlXSXSXSXSXSXSXSXSXSXSXSX",
"SXSXSXSXSXSXSXSXSXSXSXSXSXSXAXSXDXBXNXNXoX#...u.NX[.X.gXnXT.r w O.X.q i !.mX+X..fXNXr ..5.OXNXBXBXSXSXAXSXSXSXSXSXSXSXSXSXSXSXSX",
"SXSXSXSXSXSXSXSXSXSXSXSXSXSXSXSXSXSXSXSXSXOXR.o.A.hX).O.t w [.4X3.3.hXu.y t ..OXgXA.$.f.dXSXSXSXSXSXSXSXSXSXSXSXSXSXSXSXSXSXSXSX",
"SXSXSXSXSXSXSXSXSXSXSXSXSXSXSXSXSXSXSXSXSXSXDXY.g.2.>.t 8 9 hXoXi.6.dXfXa q X.>.5.L.[.VXSXSXSXSXSXSXSXSXSXSXSXSXSXSXSXSXSXSXSXSX",
"SXSXSXSXSXSXSXSXSXSXSXSXSXSXSXSXSXSXSXSXSXSXSXSXNXqXqXqX[.d O.R.bXfXd...r.qXqXqXsXCXSXDXSXSXSXSXSXSXSXSXSXSXSXSXSXSXSXSXSXSXSXSX"
};
