/* XPM */
static char *zombie641748442347[] = {
/* columns rows colors chars-per-pixel */
"64 64 16 1 ",
"  c white",
". c #933536",
"X c #70855C",
"o c #879C73",
"O c #556349",
"+ c #151C0E",
"@ c #293420",
"# c #2B2218",
"$ c #42321F",
"% c #654C29",
"& c #586C47",
"* c #2D3349",
"= c #444866",
"- c #6B7393",
"; c #594321",
": c #372415",
/* pixels */
"                                                                ",
"                                                                ",
"                                                                ",
"                                                                ",
"                                                                ",
"                                                                ",
"                                                                ",
"                                                                ",
"                                                                ",
"                                                                ",
"                                                                ",
"                                                                ",
"                                ..XXoo                          ",
"                               .XX.XXXo                         ",
"                              O.XX.XXXo                         ",
"                             O..XXX.XXXo                        ",
"                            OXX+++X.+++o                        ",
"                            OXX.++Xo++Oo                        ",
"                            OXX.+OXoO+Oo                        ",
"                            OXX.OOXoOOXo                        ",
"                            OXX.XOXoXXXo                        ",
"                            OX.XXXOOoXXo                        ",
"                            OX.XXXOXOXXo                        ",
"                            OX.XXXXXXXXo                        ",
"                             OXXXX@@@@XX                        ",
"                            ##OXX..@@@.                         ",
"                           ##XXOX..XXX.                         ",
"                          ####XXOOOOOO                          ",
"                         ##$$$#X%                               ",
"                        ##$$$$&X%                               ",
"                       ##$$$$$$$$                               ",
"                      ####$$$$$$%#                              ",
"                     ######$$$$$$%%%%                           ",
"                     ##$$###$$$$$$%%%%%%%                       ",
"                    #$$$$$$###$$$$$$%%%%%%                      ",
"                    #$$$$$$$$###$$$$$$$$$$$oooo                 ",
"                   #$$%$$$$$$O&###$$$$$$$$OXXXoo                ",
"                   #$$%$$$$$$O&#$$$ $$$$$OOXX                   ",
"                  #$$$$%$$$$$O&#%$$$  $$$OO                     ",
"                  #$$$$$%$$$$O&#%$$$      OO                    ",
"                  #$$$$%$$$$O&X#%$$$$                           ",
"                  #$$$%$$$$$O&X%%$$$$                           ",
"                  **%$$$$$$O&X.%%$$$$                           ",
"                  ***%$$$$$O&X. %$$oo                           ",
"                  ****%%$$O&XX.  $XXoo                          ",
"                  ******%$OXX%%  OXXXo                          ",
"                   ****=***===-  O XXo                          ",
"                   ***==**====-     Xo                          ",
"                   ***===**===-     X                           ",
"                   ***=== *===-                                 ",
"                    **=== **==--                                ",
"                    **===  **==-                                ",
"                    **===  **==--                               ",
"                    **===  **===-                               ",
"                   ***=-    **==--                              ",
"                  ****=-    **==--                              ",
"                  ****=     **===--                             ",
"                 ****=-     **===--                             ",
"                 ***==-     **===--                             ",
"                ****=-      *====-                              ",
"                ****=-      =====-                              ",
"                 **$;;       =--$;;;                            ",
"                 :$$$;;      ::$$$$;;                           ",
"                 :::$$;;     ::::$$$;;                          "
};
