/* XPM */
static char *_f94af9537b14a51cd18e9a47e575100GPb6PfWmhCP3wyEG[] = {
/* columns rows colors chars-per-pixel */
"64 64 6 1 ",
"  c #8D5524",
". c #F44336",
"X c #E0AC69",
"o c #EAC086",
"O c #FFDBAC",
"+ c white",
/* pixels */
"OOOOOOOOOOOOOOOOOOOOoooo        ooooOOOOOOOOOOOOOOOOOOOOOOOOOOOO",
"OOOOOOOOOOOOOOOOOOOOoooo        ooooOOOOOOOOOOOOOOOOOOOOOOOOOOOO",
"OOOOOOOOOOOOOOOOOOOOoooo        ooooOOOOOOOOOOOOOOOOOOOOOOOOOOOO",
"OOOOOOOOOOOOOOOOOOOOoooo        ooooOOOOOOOOOOOOOOOOOOOOOOOOOOOO",
"OOOOOOOOoooooooooooooooo        ooooooooooooooooooooooooOOOOOOOO",
"OOOOOOOOoooooooooooooooo        ooooooooooooooooooooooooOOOOOOOO",
"OOOOOOOOoooooooooooooooo        ooooooooooooooooooooooooOOOOOOOO",
"OOOOOOOOoooooooooooooooo        ooooooooooooooooooooooooOOOOOOOO",
"OOOOooooXXXXXXXXXXXXXXXX        XXXXXXXXXXXXXXXXXXXXXXXXXXXXOOOO",
"OOOOooooXXXXXXXXXXXXXXXX            XXXXXXXXXXXXXXXXXXXXXXXXOOOO",
"OOOOooooXXXXXXXXXXXXXXXX            XXXXXXXXXXXXXXXXXXXXXXXXOOOO",
"OOOOooooXXXXXXXXXXXXXXXX            XXXXXXXXXXXXXXXXXXXXXXXXOOOO",
"OOOOooooXXXX                                        XXXXXXXXOOOO",
"OOOOooooXXXX                                        XXXXXXXXOOOO",
"OOOOooooXXXX                                        XXXXXXXXOOOO",
"OOOOooooXXXX                                            XXXXOOOO",
"OOOOoooo++++++++++++++++                ++++++++++++++++XXXXOOOO",
"OOOOoooo++++++++++++++++                ++++++++++++++++XXXXOOOO",
"OOOOoooo++++++++++++++++                ++++++++++++++++XXXXOOOO",
"OOOOoooo++++++++++++++++                ++++++++++++++++XXXXOOOO",
"OOOOoooo++++++++++++++++                ++++++++++++++++XXXXOOOO",
"OOOOoooo++++++++++++++++                ++++++++++++++++XXXXOOOO",
"OOOOoooo++++++++++++++++                ++++++++++++++++XXXXOOOO",
"OOOOoooo++++++++++++++++                ++++++++++++++++XXXXOOOO",
"OOOOoooo++++++++++++++++                ++++++++++++++++XXXXOOOO",
"OOOOoooo++++++++++++++++                ++++++++++++++++XXXXOOOO",
"OOOOoooo++++++++++++++++                ++++++++++++++++XXXXOOOO",
"OOOOoooo++++++++++++++++                ++++++++++++++++XXXXOOOO",
"oooooooo++++++++++++++++                ++++++++++++++++XXXXOOOO",
"oooooooo++++++++++++++++                ++++++++++++++++XXXXOOOO",
"oooooooo++++++++++++++++                ++++++++++++++++XXXXOOOO",
"oooooooo++++++++++++++++                ++++++++++++++++XXXXOOOO",
"                                                        XXXXOOOO",
"                                                        XXXXOOOO",
"                                                        XXXXOOOO",
"                                                        XXXXOOOO",
"                                                        XXXXXXXX",
"                                                        XXXXXXXX",
"                                                        XXXXXXXX",
"                                ........                XXXXXXXX",
"ooooooooXXXX                    .........              XXXXXXXXX",
"ooooooooXXXX                    .........              XXXXXXXXX",
"ooooooooXXXX                    .........              XXXXXXXXX",
"ooooooooXXXX                    .........              XXXXXXXXX",
"OOOOooooXXXX                    .........              XXXXXXXXX",
"OOOOooooXXXX                    .........              XXXXXXXXX",
"OOOOooooXXXX                    .........              XXXXXXXXX",
"OOOOooooXXXX                    .........           XXXXXXXXXXXX",
"OOOOooooXXXX                                        XXXXoooooooO",
"OOOOooooXXXX                                        XXXXoooooooO",
"OOOOooooXXXX                                        XXXXoooooooO",
"OOOOooooXXXX                                        XXXXoooooooO",
"OOOOooooXXXXXXXXXXXXXXXX        XXXXXXXXXXXXXXXXXXXXXXXXooooOOOO",
"OOOOooooXXXXXXXXXXXXXXXX        XXXXXXXXXXXXXXXXXXXXXXXXooooOOOO",
"OOOOooooXXXXXXXXXXXXXXXX        XXXXXXXXXXXXXXXXXXXXXXXXooooOOOO",
"OOOOooooXXXXXXXXXXXXXXXX        XXXXXXXXXXXXXXXXXXXXXXXXooooOOOO",
"OOOOOOOOoooooooooooooooo        ooooooooXXXXXXXoooooooooOOOOOOOO",
"OOOOOOOOoooooooooooooooo        ooooooooXXXXXXXoooooooooOOOOOOOO",
"OOOOOOOOoooooooooooooooo        ooooooooXXXXXXXoooooooooOOOOOOOO",
"OOOOOOOOoooooooooooooooo        oooooooooXXXXXXoooooooooOOOOOOOO",
"OOOOOOOOOOOOOOOOOOOOoooo        oooooooooooooooooOOOOOOOOOOOOOOO",
"OOOOOOOOOOOOOOOOOOOOoooo        ooooooooooooooooOOOOOOOOOOOOOOOO",
"OOOOOOOOOOOOOOOOOOOOoooo        ooooooooooooooooOOOOOOOOOOOOOOOO",
"OOOOOOOOOOOOOOOOOOOOOOOo        OOOOOOOOOOOOOOOOOOOOOOOOOOOOOOOO"
};
